<svg id="customisability" xmlns="http://www.w3.org/2000/svg" width="65" height="70" viewBox="0 0 65 70">
  <path id="Path_444" data-name="Path 444" d="M278.559,310.477H256.028a2.312,2.312,0,0,0-2.31,2.31v13.979a2.312,2.312,0,0,0,2.31,2.31h10.215a.625.625,0,0,1,0,1.25h-2.081v1.665h-1.628a.813.813,0,1,0,0,1.626h9.518a.813.813,0,1,0,0-1.626h-1.789V329.12a.045.045,0,0,1,.044-.045h8.252a2.312,2.312,0,0,0,2.31-2.31V312.787A2.312,2.312,0,0,0,278.559,310.477Zm-11.266,16.835a.889.889,0,1,1,.889-.889.889.889,0,0,1-.889.889Zm11.95-3.114h-23.9v-9.919h23.9Z" transform="translate(-217.33 -263.617)" fill="#ffc600"/>
  <path id="Path_445" data-name="Path 445" d="M72.207,310.474H57.989a2.29,2.29,0,0,0-2.287,2.287v18.208a2.29,2.29,0,0,0,2.287,2.287H72.208a2.29,2.29,0,0,0,2.287-2.287V312.761A2.29,2.29,0,0,0,72.207,310.474ZM65.1,331.731a.889.889,0,1,1,.889-.889.889.889,0,0,1-.889.889Zm7.771-2.855H57.327v-14.6H72.869Z" transform="translate(-53.298 -263.615)" fill="#ffc600"/>
  <path id="Path_446" data-name="Path 446" d="M77.63,122.473a.813.813,0,0,0,0-1.626h-.047a8.34,8.34,0,0,0-8.34,8.4.813.813,0,0,0,.813.807h.006a.813.813,0,0,0,.807-.819,6.714,6.714,0,0,1,6.712-6.766h.045Z" transform="translate(-65.148 -104.388)" fill="#ffc600"/>
  <path id="Path_447" data-name="Path 447" d="M52.287,43.6a3.461,3.461,0,0,0,5.641,0H79a3.461,3.461,0,0,0,5.641,0h2.339c7.94,0,14.447-5.477,14.506-12.21a11.47,11.47,0,0,0-4.161-8.76,15.614,15.614,0,0,0-10.177-3.637H87.1a4.3,4.3,0,0,1-3.8-2.077c-2.587-4.779-8.169-7.836-14.31-7.836s-11.723,3.057-14.31,7.836a4.3,4.3,0,0,1-3.8,2.077h-.049a15.614,15.614,0,0,0-10.177,3.637,11.47,11.47,0,0,0-4.161,8.76c.058,6.733,6.565,12.21,14.506,12.21Zm2.82-.17a1.129,1.129,0,1,1,1.3-1.116,1.219,1.219,0,0,1-1.3,1.116Zm23.544-1.455H58.276a2.891,2.891,0,0,0-2.17-2.265V34.288a1.989,1.989,0,0,1,2.119-1.819h20.5a1.989,1.989,0,0,1,2.119,1.819V39.7a2.9,2.9,0,0,0-2.192,2.271Zm3.168,1.455a1.129,1.129,0,1,1,1.3-1.116,1.219,1.219,0,0,1-1.3,1.116ZM38.38,31.379a9.954,9.954,0,0,1,3.611-7.6,13.551,13.551,0,0,1,8.832-3.156h.052A6.24,6.24,0,0,0,56.393,17.6c2.276-4.205,7.188-6.9,12.592-6.9S79.3,13.4,81.577,17.6a6.238,6.238,0,0,0,5.516,3.017h.055a13.551,13.551,0,0,1,8.832,3.156,9.954,9.954,0,0,1,3.611,7.6c-.051,5.843-5.708,10.6-12.611,10.6H84.987a2.906,2.906,0,0,0-2.249-2.287v-5.4a3.766,3.766,0,0,0-4.014-3.444h-9.3V26.283A3.862,3.862,0,0,0,72.829,22.2a4.505,4.505,0,0,0-8.71,0,3.862,3.862,0,0,0,3.408,4.079v4.561h-9.3a3.766,3.766,0,0,0-4.014,3.444v5.4a2.91,2.91,0,0,0-2.272,2.292h-.948C44.088,41.975,38.431,37.222,38.38,31.379Z" transform="translate(-36.485 -9.082)" fill="#ffc600"/>
</svg>
