<svg id="learn_anywhere" data-name="learn anywhere" xmlns="http://www.w3.org/2000/svg" width="65" height="65" viewBox="0 0 65 65">
  <path id="Path_438" data-name="Path 438" d="M58.915,2A2.915,2.915,0,0,0,56,4.915V34.066a.971.971,0,0,0,.029.236l1.943,7.774a.972.972,0,0,0,1.885,0L61.8,34.3a.972.972,0,0,0,.029-.236V4.915A2.915,2.915,0,0,0,58.915,2Zm0,1.943a.972.972,0,0,1,.972.972V33.094H57.943V4.915A.972.972,0,0,1,58.915,3.943Zm0,33.89-.7-2.8h1.4Z" transform="translate(3.17 -2)" fill="#ffc600"/>
  <path id="Path_439" data-name="Path 439" d="M58.36,47.564V31.25a1.084,1.084,0,0,0-1.084-1.083H53.651a20.334,20.334,0,0,0,1.458-7.583,20.594,20.594,0,0,0-41.188,0,20.334,20.334,0,0,0,1.458,7.583H11.753A9.75,9.75,0,0,0,10.669,49.6V65.917A1.084,1.084,0,0,0,11.753,67H57.276A9.75,9.75,0,0,0,58.36,47.564Zm-15.77-17.4a46.8,46.8,0,0,0,.571-6.5h9.717a18.116,18.116,0,0,1-1.605,6.5Zm-13.955,0a44.225,44.225,0,0,1-.6-6.5H40.994a44.224,44.224,0,0,1-.6,6.5Zm5.879-26c1.933,0,4,2.988,5.275,7.9a18.435,18.435,0,0,1-5.275.768,18.435,18.435,0,0,1-5.275-.768C30.512,7.155,32.582,4.167,34.515,4.167ZM27.186,11.3a18.3,18.3,0,0,1-4.514-2.8,18.383,18.383,0,0,1,7.417-3.769,19.739,19.739,0,0,0-2.9,6.57ZM38.94,4.726A18.383,18.383,0,0,1,46.357,8.5a18.3,18.3,0,0,1-4.514,2.807,19.739,19.739,0,0,0-2.9-6.581ZM34.515,15a20.64,20.64,0,0,0,5.748-.816A44.039,44.039,0,0,1,41,21.5H28.033a44.04,44.04,0,0,1,.739-7.315A20.633,20.633,0,0,0,34.515,15Zm18.371,6.5H43.164a46.38,46.38,0,0,0-.827-8.044A20.487,20.487,0,0,0,47.929,10a18.315,18.315,0,0,1,4.957,11.5ZM21.1,10a20.487,20.487,0,0,0,5.592,3.459,46.381,46.381,0,0,0-.827,8.044H16.144A18.315,18.315,0,0,1,21.1,10Zm-4.95,13.67h9.717a46.8,46.8,0,0,0,.571,6.5H17.755a18.115,18.115,0,0,1-1.605-6.5ZM4.165,39.917a7.594,7.594,0,0,1,7.587-7.583h44.44V47.5H11.753a7.594,7.594,0,0,1-7.587-7.583ZM57.276,64.833H12.837V49.667h44.44a7.583,7.583,0,1,1,0,15.167Z" transform="translate(-2.028 -2)" fill="#ffc600"/>
  <rect id="Rectangle_2028" data-name="Rectangle 2028" width="38.868" height="1.943" transform="translate(20.302 55.283)" fill="#ffc600"/>
  <rect id="Rectangle_2029" data-name="Rectangle 2029" width="34.981" height="1.943" transform="translate(12.487 36.964)" fill="#ffc600"/>
  <rect id="Rectangle_2030" data-name="Rectangle 2030" width="36.925" height="1.943" transform="translate(20.302 50.01)" fill="#ffc600"/>
  <rect id="Rectangle_2031" data-name="Rectangle 2031" width="36.925" height="1.943" transform="translate(20.302 59.17)" fill="#ffc600"/>
  <rect id="Rectangle_2032" data-name="Rectangle 2032" width="1.943" height="1.943" transform="translate(5.803 36.964)" fill="#ffc600"/>
</svg>
