<svg id="unlimited_access" data-name="unlimited access" xmlns="http://www.w3.org/2000/svg" width="65" height="65" viewBox="0 0 65 65">
  <path id="Path_442" data-name="Path 442" d="M54.047,18.246H28.3l7.59-7.5L33,7.83,20.74,20.09,33,32.35,35.893,29.5,28.68,22.283H54.047a10.766,10.766,0,1,1,0,21.532H24.212v4.037H54.047a14.8,14.8,0,1,0,0-29.607Z" transform="translate(-3.851 -7.83)" fill="#ffc600"/>
  <path id="Path_443" data-name="Path 443" d="M40.468,44.786,47.681,52H22.313a10.766,10.766,0,1,1,0-21.532H52.149V26.43H22.313a14.8,14.8,0,1,0,0,29.607H48.058l-7.59,7.5L43.321,66.4l12.26-12.26L43.361,42Z" transform="translate(-7.51 -1.399)" fill="#ffc600"/>
</svg>
